<svg width="437" height="129" viewBox="0 0 437 129" fill="none" xmlns="http://www.w3.org/2000/svg">
<path fill-rule="evenodd" clip-rule="evenodd" d="M394.336 32.1022C401.164 45.0935 395.08 55.2236 388.322 66.4765L387.876 67.22C394.61 46.6025 386.623 37.338 381.564 31.4687L381.563 31.4683C380.457 30.1846 379.49 29.0633 378.848 28.0212C375.865 23.1779 375.682 7.69858 383.273 0C383.271 1.36411 383.239 2.66639 383.207 3.92639L383.207 3.93229L383.207 3.93255C382.981 13.063 382.81 19.974 394.336 32.1022ZM363.95 51.5L359.273 42.5L354.597 51.5H354.549L356.107 54.2668L356.1 54.2707L386.481 108.489L419.397 51.5H419.37L414.173 43.25L408.977 51.5H408.991L386.475 90.5L363.958 51.5H363.95ZM386.908 109.75L419.312 53.647L419.313 53.6474L420.561 51.5H429.185H429.776H436.183C436.183 51.5 428.685 53.9995 426.686 56.9989C426.485 57.3007 426.349 57.486 426.268 57.5754L386.475 126.5L346.664 57.5454C346.581 57.4472 346.454 57.2703 346.273 57C344.273 54 336.773 51.5 336.773 51.5H343.173H343.773H353.401L353.539 51.7443L386.039 109.744L386.468 110.511L386.908 109.75ZM384.77 72.5C390.384 59.9213 391.956 48.1977 383.599 36.1752C372.596 24.387 375.501 15.2704 378.404 6.162C378.528 5.77472 378.651 5.38745 378.773 5C378.505 5.35558 378.236 5.7107 377.968 6.06564C371.535 14.5612 365.182 22.9513 370.066 35.064C370.995 37.0535 372.275 38.6638 373.703 40.4611L373.704 40.4618L373.704 40.462C377.711 45.5036 382.889 52.0178 384.77 72.5ZM1.15625 31V29.5938L5.0625 28.8125V3.8125L1.15625 3.03125V1.625H13.8125V3.03125L10.25 3.8125V28.4062H24V3.8125L20.0938 3.03125V1.625H32.75V3.03125L29.1875 3.8125V28.8125L32.8125 29.3125L32.2812 43.375H30.25L27.2188 31H1.15625ZM42.375 16.2188V16.7812C42.375 19.6562 42.6875 21.8958 43.3125 23.5C43.9583 25.0833 44.9375 26.2917 46.25 27.125C47.5833 27.9583 49.3229 28.375 51.4688 28.375C52.5938 28.375 53.9271 28.2812 55.4688 28.0938C57.0104 27.9062 58.2812 27.6979 59.2812 27.4688V29.2188C58.2812 29.8646 56.9167 30.4271 55.1875 30.9062C53.4792 31.3854 51.7292 31.625 49.9375 31.625C45.375 31.625 42.0312 30.3958 39.9062 27.9375C37.8021 25.4792 36.75 21.5312 36.75 16.0938C36.75 10.9688 37.8229 7.14583 39.9688 4.625C42.1146 2.10417 45.1771 0.84375 49.1562 0.84375C56.6771 0.84375 60.4375 5.11458 60.4375 13.6562V16.2188H42.375ZM49.1562 3.34375C46.9896 3.34375 45.3229 4.21875 44.1562 5.96875C43.0104 7.71875 42.4375 10.3021 42.4375 13.7188H55C55 9.98958 54.5208 7.33333 53.5625 5.75C52.6042 4.14583 51.1354 3.34375 49.1562 3.34375ZM67.75 3.8125L63.8438 3.03125V1.625H76.5V3.03125L72.9375 3.8125V14.6875H86.6875V3.8125L82.7812 3.03125V1.625H95.4375V3.03125L91.875 3.8125V28.8125L95.4375 29.5938V31H82.7812V29.5938L86.6875 28.8125V17.2812H72.9375V28.8125L76.5 29.5938V31H63.8438V29.5938L67.75 28.8125V3.8125ZM123.969 1.625V10H122.25L120.906 4.8125C118.594 4.41667 116.521 4.21875 114.688 4.21875H113.5V28.8125L117.688 29.5938V31H103.781V29.5938L108.312 28.8125V4.21875H107.156C105.323 4.21875 103.25 4.41667 100.938 4.8125L99.5938 10H97.875V1.625H123.969ZM130.5 3.8125L127.156 3.03125V1.625H135.406L135.469 3.34375C136.344 2.59375 137.51 1.98958 138.969 1.53125C140.448 1.07292 141.948 0.84375 143.469 0.84375C147.219 0.84375 150.115 2.14583 152.156 4.75C154.219 7.35417 155.25 11.0938 155.25 15.9688C155.25 20.9479 154.125 24.8021 151.875 27.5312C149.646 30.2604 146.417 31.625 142.188 31.625C139.833 31.625 137.594 31.3958 135.469 30.9375C135.594 32.4375 135.656 33.6146 135.656 34.4688V42.4062L140.781 43.1562V44.625H126.781V43.1562L130.5 42.4062V3.8125ZM149.625 15.9688C149.625 11.9688 148.969 9 147.656 7.0625C146.365 5.10417 144.396 4.125 141.75 4.125C139.312 4.125 137.281 4.46875 135.656 5.15625V28.625C137.51 28.9792 139.542 29.1562 141.75 29.1562C147 29.1562 149.625 24.7604 149.625 15.9688ZM44.9531 61.6484C47.7604 63.6901 49.1641 66.9531 49.1641 71.4375C49.1641 76.6875 47.7604 80.4792 44.9531 82.8125C42.1823 85.1458 37.8438 86.3125 31.9375 86.3125H19.9609V58.5859H31.2812C37.5885 58.5859 42.1458 59.6068 44.9531 61.6484ZM49.5469 94.8438C52.974 97.2135 54.6875 100.969 54.6875 106.109C54.6875 111.688 53.138 115.807 50.0391 118.469C46.9401 121.094 42.2734 122.406 36.0391 122.406C30.3516 122.406 24.9922 122.297 19.9609 122.078V91.2344H33.0859C40.6328 91.2344 46.1198 92.4375 49.5469 94.8438ZM0 124.102V127H14L37.4062 127.328C46.7396 127.328 53.8307 125.523 58.6797 121.914C63.5651 118.268 66.0078 112.927 66.0078 105.891C66.0078 100.932 64.2031 96.8854 60.5938 93.75C56.9844 90.5781 51.8802 88.6458 45.2812 87.9531C50.0573 86.9323 53.7578 84.9089 56.3828 81.8828C59.0443 78.8568 60.375 75.1927 60.375 70.8906C60.375 64.9115 58.224 60.5547 53.9219 57.8203C49.6198 55.0495 42.8203 53.6641 33.5234 53.6641H0V56.5625L9.40625 57.9844V122.625L0 124.102ZM84.1094 122.625L74.7031 124.102V127H133.273L134.312 107.641H130.703L127.586 121.203C124.669 121.786 118.508 122.078 109.102 122.078H94.6641V92.1641H114.461L116.156 101.023H119.656V78.4922H116.156L114.461 87.2422H94.6641V58.5859H106.641C114.37 58.5859 120.276 58.8411 124.359 59.3516L126.109 71.2188H129.719V53.6641H74.7031V56.5625L84.1094 57.9844V122.625ZM154.492 118.414C161.128 124.867 170.388 128.094 182.273 128.094C191.497 128.094 200.12 126.945 208.141 124.648L208.469 107.422H204.914L202.891 118.359C200.74 120.036 197.823 121.385 194.141 122.406C190.458 123.391 186.539 123.883 182.383 123.883C173.779 123.883 167.216 121.076 162.695 115.461C158.211 109.846 155.969 101.716 155.969 91.0703C155.969 79.513 158.12 70.9818 162.422 65.4766C166.724 59.9714 173.56 57.2188 182.93 57.2188C186.43 57.2188 189.857 57.6562 193.211 58.5312C196.602 59.3698 199.573 60.5729 202.125 62.1406L203.766 71.6562H207.375L207.047 55.6328C198.297 53.7734 190.112 52.8438 182.492 52.8438C169.951 52.8438 160.49 56.0885 154.109 62.5781C147.729 69.0312 144.539 78.5651 144.539 91.1797C144.539 102.846 147.857 111.924 154.492 118.414ZM231.875 124.102V127H265.727V124.102L254.078 122.625V58.4766H256.758C261.133 58.4766 265.161 58.5859 268.844 58.8047C272.526 58.987 274.914 59.2057 276.008 59.4609L277.484 70.8906H281.203V53.6641H216.672V70.8906H220.336L221.812 59.4609C225.203 58.7318 231.51 58.3672 240.734 58.3672H243.523V122.625L231.875 124.102ZM302.75 127V124.102L292.906 122.625L300.289 101.461H329.164L336.438 122.625L326.594 124.102V127H357.602V124.102L348.305 122.625L322.328 53.0625H311.938L286.945 122.625L278.633 124.102V127H302.75ZM301.93 96.5391L314.508 60.9375L327.469 96.5391H301.93Z" fill="#A88EBC"/>
</svg>
