<svg width="468" height="129" viewBox="0 0 468 129" fill="none" xmlns="http://www.w3.org/2000/svg">
<path fill-rule="evenodd" clip-rule="evenodd" d="M131.75 31H105.688V28.9375L108.656 28.1875V4.4375L105.688 3.6875V1.625H120.656V3.6875L117.688 4.4375V27.7812H127.188V4.4375L124.219 3.6875V1.625H139.188V3.6875L136.219 4.4375V28.1875L139.812 28.9375L139.312 42.125H135.719L131.75 31ZM156.312 0.90625C160.292 0.90625 163.167 1.96875 164.938 4.09375C166.729 6.21875 167.625 9.52083 167.625 14V16.5625H152.219V17.0625C152.219 20.1667 152.469 22.375 152.969 23.6875C153.469 25 154.281 26 155.406 26.6875C156.531 27.375 158.073 27.7188 160.031 27.7188C161.865 27.7188 164.177 27.4167 166.969 26.8125V29.2188C165.823 29.9062 164.333 30.4792 162.5 30.9375C160.688 31.375 158.917 31.5938 157.188 31.5938C152.375 31.5938 148.812 30.3438 146.5 27.8438C144.208 25.3229 143.062 21.4271 143.062 16.1562C143.062 11.0312 144.156 7.20833 146.344 4.6875C148.552 2.16667 151.875 0.90625 156.312 0.90625ZM155.969 4.0625C154.719 4.0625 153.781 4.73958 153.156 6.09375C152.552 7.44792 152.25 9.84375 152.25 13.2812H159.062C159.062 10.4896 158.969 8.53125 158.781 7.40625C158.594 6.26042 158.271 5.41667 157.812 4.875C157.375 4.33333 156.76 4.0625 155.969 4.0625ZM192.5 17.5938H183V28.1875L185.969 28.9375V31H171V28.9375L173.969 28.1875V4.4375L171 3.6875V1.625H185.969V3.6875L183 4.4375V14.375H192.5V4.4375L189.531 3.6875V1.625H204.5V3.6875L201.531 4.4375V28.1875L204.5 28.9375V31H189.531V28.9375L192.5 28.1875V17.5938ZM236.844 1.625V10.625H234.5L233.156 5.4375C230.844 5.04167 228.875 4.84375 227.25 4.84375H226.406V28.1875L231.188 28.9688V31H212.25V28.9688L217.375 28.1875V4.84375H216.562C214.938 4.84375 212.969 5.04167 210.656 5.4375L209.312 10.625H206.969V1.625H236.844ZM251.219 3.125C253.448 1.60417 256.156 0.84375 259.344 0.84375C263.427 0.84375 266.458 2.04167 268.438 4.4375C270.438 6.83333 271.438 10.6146 271.438 15.7812C271.438 20.9062 270.281 24.8333 267.969 27.5625C265.656 30.2708 262.333 31.625 258 31.625C255.792 31.625 253.562 31.3438 251.312 30.7812C251.438 32.1562 251.5 33.6979 251.5 35.4062V41.8125L255.812 42.5625V44.625H239.281V42.5625L242.469 41.8125V4.4375L239.25 3.6875V1.625H251.156L251.219 3.125ZM262.281 16C262.281 8.20833 260.469 4.3125 256.844 4.3125C254.906 4.3125 253.125 4.70833 251.5 5.5V27.6562C253.188 28.0938 254.948 28.3125 256.781 28.3125C260.448 28.3125 262.281 24.2083 262.281 16ZM57.5628 34.1022C64.3904 47.0935 58.3068 57.2236 51.5489 68.4765L51.1026 69.22C57.8367 48.6025 49.8501 39.338 44.7903 33.4687C43.6835 32.1848 42.7168 31.0634 42.0748 30.0212C39.0915 25.1779 38.9084 9.69858 46.5 2C46.4974 3.36624 46.465 4.67046 46.4338 5.93229L46.4338 5.93255C46.2075 15.063 46.0362 21.974 57.5628 34.1022ZM27.1765 53.5L22.5 44.5L17.8235 53.5H17.7753L19.334 56.2668L19.327 56.2707L49.7078 110.489L82.6239 53.5H82.5961L77.4 45.25L72.2038 53.5H72.2179L49.7013 92.5L27.1846 53.5H27.1765ZM50.1342 111.75L82.5386 55.647L82.5392 55.6474L83.7871 53.5H92.4117H93.0025H99.41C99.41 53.5 91.9118 55.9995 89.9123 58.9989C89.7111 59.3007 89.5757 59.486 89.4949 59.5754L49.7013 128.5L9.89033 59.5454C9.80762 59.4472 9.68019 59.2703 9.5 59C7.5 56 0 53.5 0 53.5H6.39999H7H16.6276L16.7652 53.7443L16.7651 53.7444L49.2651 111.744L49.6947 112.511L50.1342 111.75ZM47.9964 74.5C53.611 61.9213 55.1825 50.1977 46.8252 38.1752C35.8222 26.387 38.7278 17.2704 41.6308 8.162L41.631 8.16124L41.6313 8.16048C41.7545 7.7737 41.8778 7.38695 42 7C41.7318 7.35558 41.4629 7.7107 41.1941 8.06564C34.7614 16.5612 28.4084 24.9513 33.2928 37.064C34.2215 39.0538 35.5015 40.6643 36.9305 42.462C40.9377 47.5036 46.1155 54.0178 47.9964 74.5ZM182.625 57.6562V53.6641H161.023V57.6562L168.406 59.1328L149.156 107.203L128.539 59.1328L136.141 57.6562V53.6641H104.258V57.6562L110.273 59.1328L140.078 128.695H147.352L175.68 59.1328L182.625 57.6562ZM195.258 121.531L185.852 123.008V127H251.859L252.898 106.547H247.922L244.805 120.109C241.888 120.693 235.727 120.984 226.32 120.984H212.484V92.7109H231.68L233.375 101.023H238.242V78.4922H233.375L231.68 86.5859H212.484V59.6797H223.859C231.589 59.6797 237.495 59.9349 241.578 60.4453L243.328 72.3125H248.305V53.6641H185.852V57.6562L195.258 59.0781V121.531ZM269.414 104.523H264.602V124.211C267.737 125.378 271.474 126.307 275.812 127C280.188 127.729 284.471 128.094 288.664 128.094C307.003 128.094 316.172 120.31 316.172 104.742C316.172 100.695 315.352 97.1771 313.711 94.1875C312.07 91.1979 309.682 88.7005 306.547 86.6953C303.448 84.6536 297.724 82.2656 289.375 79.5312C285.109 78.1823 281.974 76.651 279.969 74.9375C277.964 73.1875 276.961 71.0911 276.961 68.6484C276.961 65.2214 278.164 62.6875 280.57 61.0469C282.977 59.3698 286.422 58.5312 290.906 58.5312C295.865 58.5312 300.203 59.8802 303.922 62.5781L306.383 72.6406H311.25V55.1953C303.812 53.6276 297.031 52.8438 290.906 52.8438C282.448 52.8438 276.013 54.5391 271.602 57.9297C267.227 61.2839 265.039 66.1875 265.039 72.6406C265.039 76.2865 265.604 79.3672 266.734 81.8828C267.865 84.362 269.378 86.4766 271.273 88.2266C273.169 89.9766 275.484 91.5078 278.219 92.8203C280.99 94.0964 285.51 95.7734 291.781 97.8516C296.047 99.3099 299.164 100.969 301.133 102.828C303.138 104.688 304.141 106.966 304.141 109.664C304.141 118.268 298.909 122.57 288.445 122.57C285.128 122.57 281.919 121.969 278.82 120.766C275.721 119.562 273.406 118.068 271.875 116.281L269.414 104.523ZM337.938 123.008V127H378.516V123.008L366.867 121.531V59.5703H369.547C378.479 59.5703 384.458 59.8984 387.484 60.5547L388.961 74.1719H393.992V53.6641H322.734V74.1719H327.711L329.188 60.5547C332.578 59.8255 338.448 59.4609 346.797 59.4609H349.586V121.531L337.938 123.008ZM410.781 127V123.008L401.375 121.531L408.102 102.555H436.266L443.266 121.531L434.789 123.008V127H467.438V123.008L461.859 121.531L435.883 53.0625H420.023L393.938 121.531L388.469 123.008V127H410.781ZM410.344 96.5391L422.43 64.1094L434.188 96.5391H410.344Z" fill="#A88EBC"/>
</svg>
