<svg width="480" height="131" viewBox="0 0 480 131" fill="none" xmlns="http://www.w3.org/2000/svg">
<path fill-rule="evenodd" clip-rule="evenodd" d="M129.75 31H103.688V28.9375L106.656 28.1875V4.4375L103.688 3.6875V1.625H118.656V3.6875L115.688 4.4375V27.7812H125.188V4.4375L122.219 3.6875V1.625H137.188V3.6875L134.219 4.4375V28.1875L137.812 28.9375L137.312 42.125H133.719L129.75 31ZM154.312 0.90625C158.292 0.90625 161.167 1.96875 162.938 4.09375C164.729 6.21875 165.625 9.52083 165.625 14V16.5625H150.219V17.0625C150.219 20.1667 150.469 22.375 150.969 23.6875C151.469 25 152.281 26 153.406 26.6875C154.531 27.375 156.073 27.7188 158.031 27.7188C159.865 27.7188 162.177 27.4167 164.969 26.8125V29.2188C163.823 29.9062 162.333 30.4792 160.5 30.9375C158.688 31.375 156.917 31.5938 155.188 31.5938C150.375 31.5938 146.812 30.3438 144.5 27.8438C142.208 25.3229 141.062 21.4271 141.062 16.1562C141.062 11.0312 142.156 7.20833 144.344 4.6875C146.552 2.16667 149.875 0.90625 154.312 0.90625ZM153.969 4.0625C152.719 4.0625 151.781 4.73958 151.156 6.09375C150.552 7.44792 150.25 9.84375 150.25 13.2812H157.062C157.062 10.4896 156.969 8.53125 156.781 7.40625C156.594 6.26042 156.271 5.41667 155.812 4.875C155.375 4.33333 154.76 4.0625 153.969 4.0625ZM190.5 17.5938H181V28.1875L183.969 28.9375V31H169V28.9375L171.969 28.1875V4.4375L169 3.6875V1.625H183.969V3.6875L181 4.4375V14.375H190.5V4.4375L187.531 3.6875V1.625H202.5V3.6875L199.531 4.4375V28.1875L202.5 28.9375V31H187.531V28.9375L190.5 28.1875V17.5938ZM234.844 1.625V10.625H232.5L231.156 5.4375C228.844 5.04167 226.875 4.84375 225.25 4.84375H224.406V28.1875L229.188 28.9688V31H210.25V28.9688L215.375 28.1875V4.84375H214.562C212.938 4.84375 210.969 5.04167 208.656 5.4375L207.312 10.625H204.969V1.625H234.844ZM249.219 3.125C251.448 1.60417 254.156 0.84375 257.344 0.84375C261.427 0.84375 264.458 2.04167 266.438 4.4375C268.438 6.83333 269.438 10.6146 269.438 15.7812C269.438 20.9062 268.281 24.8333 265.969 27.5625C263.656 30.2708 260.333 31.625 256 31.625C253.792 31.625 251.562 31.3438 249.312 30.7812C249.438 32.1562 249.5 33.6979 249.5 35.4062V41.8125L253.812 42.5625V44.625H237.281V42.5625L240.469 41.8125V4.4375L237.25 3.6875V1.625H249.156L249.219 3.125ZM260.281 16C260.281 8.20833 258.469 4.3125 254.844 4.3125C252.906 4.3125 251.125 4.70833 249.5 5.5V27.6562C251.188 28.0938 252.948 28.3125 254.781 28.3125C258.448 28.3125 260.281 24.2083 260.281 16ZM57.5628 36.1022C64.3904 49.0935 58.3068 59.2236 51.5489 70.4765L51.1026 71.22C57.8367 50.6025 49.8501 41.338 44.7903 35.4687C43.6835 34.1848 42.7168 33.0634 42.0748 32.0212C39.0915 27.1779 38.9084 11.6986 46.5 4C46.4974 5.36624 46.465 6.67046 46.4338 7.93229L46.4338 7.93255C46.2075 17.063 46.0362 23.974 57.5628 36.1022ZM27.1765 55.5L22.5 46.5L17.8235 55.5H17.7753L19.334 58.2668L19.327 58.2707L49.7078 112.489L82.6239 55.5H82.5961L77.4 47.25L72.2038 55.5H72.2179L49.7013 94.5L27.1846 55.5H27.1765ZM50.1342 113.75L82.5386 57.647L82.5392 57.6474L83.7871 55.5H92.4117H93.0025H99.41C99.41 55.5 91.9118 57.9995 89.9123 60.9989C89.7111 61.3007 89.5757 61.486 89.4949 61.5754L49.7013 130.5L9.89033 61.5454C9.80762 61.4472 9.68019 61.2703 9.5 61C7.5 58 0 55.5 0 55.5H6.39999H7H16.6276L16.7652 55.7443L16.7651 55.7444L49.2651 113.744L49.6947 114.511L50.1342 113.75ZM47.9964 76.5C53.611 63.9213 55.1825 52.1977 46.8252 40.1752C35.8222 28.387 38.7278 19.2704 41.6308 10.162L41.631 10.1612L41.6313 10.1605C41.7545 9.7737 41.8778 9.38695 42 9C41.7318 9.35558 41.4629 9.7107 41.1941 10.0656C34.7614 18.5612 28.4084 26.9513 33.2928 39.064C34.2215 41.0538 35.5015 42.6643 36.9305 44.462C40.9377 49.5036 46.1155 56.0178 47.9964 76.5ZM145.227 64.5234C147.086 66.4193 148.016 69.5 148.016 73.7656C148.016 78.651 147.086 82.1146 145.227 84.1562C143.367 86.1979 140.487 87.2188 136.586 87.2188H128.547V61.6797H136.148C140.378 61.6797 143.404 62.6276 145.227 64.5234ZM149.875 96.7891C152.318 99.1589 153.539 102.768 153.539 107.617C153.539 112.904 152.5 116.841 150.422 119.43C148.38 122.018 145.227 123.312 140.961 123.312C137.935 123.312 133.797 123.203 128.547 122.984V93.2344H138.008C143.513 93.2344 147.469 94.4193 149.875 96.7891ZM101.859 125.008V129H116.188L141.125 129.328C150.932 129.328 158.461 127.487 163.711 123.805C168.961 120.122 171.586 114.727 171.586 107.617C171.586 102.44 169.836 98.3568 166.336 95.3672C162.836 92.3411 157.677 90.4818 150.859 89.7891C155.453 88.8047 159.117 86.7266 161.852 83.5547C164.586 80.3828 165.953 76.6094 165.953 72.2344C165.953 66.401 163.638 62.1901 159.008 59.6016C154.378 56.9766 147.195 55.6641 137.461 55.6641H101.859V59.6562L111.32 61.0781V123.531L101.859 125.008ZM186.023 123.531L176.617 125.008V129H242.625L243.664 108.547H238.688L235.57 122.109C232.654 122.693 226.492 122.984 217.086 122.984H203.25V94.7109H222.445L224.141 103.023H229.008V80.4922H224.141L222.445 88.5859H203.25V61.6797H214.625C222.354 61.6797 228.26 61.9349 232.344 62.4453L234.094 74.3125H239.07V55.6641H176.617V59.6562L186.023 61.0781V123.531ZM265.211 120.305C272.102 126.831 281.69 130.094 293.977 130.094C298.497 130.094 303.383 129.656 308.633 128.781C313.883 127.87 318.148 126.776 321.43 125.5L321.758 106.906H316.781L315.031 118.938C313.281 120.432 310.857 121.727 307.758 122.82C304.695 123.914 301.104 124.461 296.984 124.461C289.182 124.461 283.24 121.781 279.156 116.422C275.073 111.062 273.031 103.26 273.031 93.0156C273.031 81.9323 274.982 73.7656 278.883 68.5156C282.784 63.2292 288.964 60.5859 297.422 60.5859C303.802 60.5859 309.398 62.2266 314.211 65.5078L315.742 76.1172H320.664L320.336 58.5078C311.221 56.0651 302.417 54.8438 293.922 54.8438C281.052 54.8438 271.318 58.1068 264.719 64.6328C258.156 71.1224 254.875 80.638 254.875 93.1797C254.875 104.737 258.32 113.779 265.211 120.305ZM347.297 125.008V129H387.875V125.008L376.227 123.531V61.5703H378.906C387.839 61.5703 393.818 61.8984 396.844 62.5547L398.32 76.1719H403.352V55.6641H332.094V76.1719H337.07L338.547 62.5547C341.938 61.8255 347.807 61.4609 356.156 61.4609H358.945V123.531L347.297 125.008ZM422.875 129V125.008L413.469 123.531L420.195 104.555H448.359L455.359 123.531L446.883 125.008V129H479.531V125.008L473.953 123.531L447.977 55.0625H432.117L406.031 123.531L400.562 125.008V129H422.875ZM422.438 98.5391L434.523 66.1094L446.281 98.5391H422.438Z" fill="#A88EBC"/>
</svg>
