<svg width="100" height="127" viewBox="0 0 100 127" fill="none" xmlns="http://www.w3.org/2000/svg">
<path fill-rule="evenodd" clip-rule="evenodd" d="M57.5628 32.1022C64.3904 45.0935 58.3068 55.2236 51.5489 66.4766L51.1026 67.22C57.8367 46.6025 49.8501 37.338 44.7903 31.4687C43.6835 30.1848 42.7168 29.0634 42.0748 28.0212C39.0915 23.1779 38.9084 7.69858 46.5 0C46.4974 1.36624 46.465 2.67046 46.4338 3.93229V3.93256C46.2075 13.063 46.0362 19.974 57.5628 32.1022ZM27.1765 51.5L22.5 42.5L17.8235 51.5H17.7753L19.334 54.2668L19.327 54.2707L49.7079 108.489L82.6239 51.5H82.5961L77.4 43.25L72.2038 51.5H72.2179L49.7013 90.5L27.1846 51.5H27.1765ZM50.1342 109.75L82.5386 53.647L82.5392 53.6474L83.7871 51.5H92.4117H93.0025H99.41C99.41 51.5 91.9118 53.9995 89.9123 56.9989C89.7111 57.3007 89.5757 57.486 89.4949 57.5754L49.7013 126.5L9.89033 57.5454C9.80762 57.4472 9.68019 57.2703 9.5 57C7.5 54 0 51.5 0 51.5H6.39999H7H16.6276L16.7652 51.7443L16.7651 51.7444L49.2651 109.744L49.6947 110.511L50.1342 109.75ZM47.9964 72.5C53.611 59.9213 55.1825 48.1977 46.8252 36.1752C35.8222 24.387 38.7278 15.2704 41.6308 6.16199C41.7542 5.77471 41.8776 5.38745 42 5C41.7318 5.35558 41.4629 5.7107 41.1941 6.06564C34.7614 14.5612 28.4084 22.9513 33.2928 35.064C34.2215 37.0538 35.5016 38.6643 36.9305 40.462C40.9377 45.5036 46.1155 52.0178 47.9964 72.5Z" fill="#A88EBC"/>
</svg>
