<svg width="430" height="129" viewBox="0 0 430 129" fill="none" xmlns="http://www.w3.org/2000/svg">
<path fill-rule="evenodd" clip-rule="evenodd" d="M387.305 32.1022C394.133 45.0935 388.049 55.2236 381.291 66.4765L380.845 67.22C387.579 46.6025 379.592 37.338 374.532 31.4687L374.532 31.4683C373.425 30.1846 372.459 29.0633 371.817 28.0212C368.834 23.1779 368.651 7.69858 376.242 0C376.24 1.36411 376.207 2.66639 376.176 3.92639L376.176 3.93229L376.176 3.93255C375.95 13.063 375.778 19.974 387.305 32.1022ZM356.919 51.5L352.242 42.5L347.566 51.5H347.518L349.076 54.2668L349.069 54.2707L379.45 108.489L412.366 51.5H412.338L407.142 43.25L401.946 51.5H401.96L379.443 90.5L356.927 51.5H356.919ZM379.876 109.75L412.281 53.647L412.281 53.6474L413.529 51.5H422.154H422.745H429.152C429.152 51.5 421.654 53.9995 419.654 56.9989C419.453 57.3007 419.318 57.486 419.237 57.5754L379.443 126.5L339.633 57.5454C339.55 57.4472 339.422 57.2703 339.242 57C337.242 54 329.742 51.5 329.742 51.5H336.142H336.742H346.37L346.507 51.7443L379.007 109.744L379.437 110.511L379.876 109.75ZM377.739 72.5C383.353 59.9213 384.925 48.1977 376.567 36.1752C365.564 24.387 368.47 15.2704 371.373 6.162L371.384 6.12787C371.504 5.75197 371.623 5.37607 371.742 5C371.474 5.35558 371.205 5.7107 370.936 6.06564C364.504 14.5612 358.151 22.9513 363.035 35.064C363.964 37.0535 365.243 38.6638 366.672 40.4611L366.672 40.4618L366.673 40.462C370.68 45.5036 375.858 52.0178 377.739 72.5ZM1.15625 31V29.5938L5.0625 28.8125V3.8125L1.15625 3.03125V1.625H13.8125V3.03125L10.25 3.8125V28.4062H24V3.8125L20.0938 3.03125V1.625H32.75V3.03125L29.1875 3.8125V28.8125L32.8125 29.3125L32.2812 43.375H30.25L27.2188 31H1.15625ZM42.375 16.2188V16.7812C42.375 19.6562 42.6875 21.8958 43.3125 23.5C43.9583 25.0833 44.9375 26.2917 46.25 27.125C47.5833 27.9583 49.3229 28.375 51.4688 28.375C52.5938 28.375 53.9271 28.2812 55.4688 28.0938C57.0104 27.9062 58.2812 27.6979 59.2812 27.4688V29.2188C58.2812 29.8646 56.9167 30.4271 55.1875 30.9062C53.4792 31.3854 51.7292 31.625 49.9375 31.625C45.375 31.625 42.0312 30.3958 39.9062 27.9375C37.8021 25.4792 36.75 21.5312 36.75 16.0938C36.75 10.9688 37.8229 7.14583 39.9688 4.625C42.1146 2.10417 45.1771 0.84375 49.1562 0.84375C56.6771 0.84375 60.4375 5.11458 60.4375 13.6562V16.2188H42.375ZM49.1562 3.34375C46.9896 3.34375 45.3229 4.21875 44.1562 5.96875C43.0104 7.71875 42.4375 10.3021 42.4375 13.7188H55C55 9.98958 54.5208 7.33333 53.5625 5.75C52.6042 4.14583 51.1354 3.34375 49.1562 3.34375ZM67.75 3.8125L63.8438 3.03125V1.625H76.5V3.03125L72.9375 3.8125V14.6875H86.6875V3.8125L82.7812 3.03125V1.625H95.4375V3.03125L91.875 3.8125V28.8125L95.4375 29.5938V31H82.7812V29.5938L86.6875 28.8125V17.2812H72.9375V28.8125L76.5 29.5938V31H63.8438V29.5938L67.75 28.8125V3.8125ZM123.969 1.625V10H122.25L120.906 4.8125C118.594 4.41667 116.521 4.21875 114.688 4.21875H113.5V28.8125L117.688 29.5938V31H103.781V29.5938L108.312 28.8125V4.21875H107.156C105.323 4.21875 103.25 4.41667 100.938 4.8125L99.5938 10H97.875V1.625H123.969ZM130.5 3.8125L127.156 3.03125V1.625H135.406L135.469 3.34375C136.344 2.59375 137.51 1.98958 138.969 1.53125C140.448 1.07292 141.948 0.84375 143.469 0.84375C147.219 0.84375 150.115 2.14583 152.156 4.75C154.219 7.35417 155.25 11.0938 155.25 15.9688C155.25 20.9479 154.125 24.8021 151.875 27.5312C149.646 30.2604 146.417 31.625 142.188 31.625C139.833 31.625 137.594 31.3958 135.469 30.9375C135.594 32.4375 135.656 33.6146 135.656 34.4688V42.4062L140.781 43.1562V44.625H126.781V43.1562L130.5 42.4062V3.8125ZM149.625 15.9688C149.625 11.9688 148.969 9 147.656 7.0625C146.365 5.10417 144.396 4.125 141.75 4.125C139.312 4.125 137.281 4.46875 135.656 5.15625V28.625C137.51 28.9792 139.542 29.1562 141.75 29.1562C147 29.1562 149.625 24.7604 149.625 15.9688ZM78.3672 56.5625V53.6641H54.5234V56.5625L64.1484 57.9844L42 111.961L19.7969 57.9844L29.6406 56.5625V53.6641H0V56.5625L8.25781 57.9844L38.0625 128.695H40.8516L70.3281 57.9844L78.3672 56.5625ZM92.3125 122.625L82.9062 124.102V127H141.477L142.516 107.641H138.906L135.789 121.203C132.872 121.786 126.711 122.078 117.305 122.078H102.867V92.1641H122.664L124.359 101.023H127.859V78.4922H124.359L122.664 87.2422H102.867V58.5859H114.844C122.573 58.5859 128.479 58.8411 132.562 59.3516L134.312 71.2188H137.922V53.6641H82.9062V56.5625L92.3125 57.9844V122.625ZM159.305 107.258H155.75V124.211C158.849 125.414 162.385 126.362 166.359 127.055C170.333 127.747 174.289 128.094 178.227 128.094C186.393 128.094 192.646 126.161 196.984 122.297C201.323 118.396 203.492 112.909 203.492 105.836C203.492 102.336 202.927 99.401 201.797 97.0312C200.703 94.625 199.245 92.6016 197.422 90.9609C195.635 89.2839 193.576 87.9167 191.242 86.8594C188.945 85.7656 186.576 84.7995 184.133 83.9609C181.727 83.0859 179.357 82.2474 177.023 81.4453C174.727 80.6432 172.667 79.6953 170.844 78.6016C169.057 77.4714 167.599 76.1224 166.469 74.5547C165.375 72.987 164.828 71.0182 164.828 68.6484C164.828 65.1484 166.195 62.4141 168.93 60.4453C171.701 58.4401 175.529 57.4375 180.414 57.4375C185.883 57.4375 190.477 58.7865 194.195 61.4844L196.109 70.4531H199.664V55.1953C192.737 53.6276 186.32 52.8438 180.414 52.8438C172.648 52.8438 166.578 54.5026 162.203 57.8203C157.828 61.138 155.641 65.7135 155.641 71.5469C155.641 74.9375 156.188 77.7995 157.281 80.1328C158.411 82.4297 159.87 84.362 161.656 85.9297C163.479 87.4974 165.539 88.7917 167.836 89.8125C170.133 90.8333 172.484 91.763 174.891 92.6016C177.333 93.4401 179.703 94.2786 182 95.1172C184.297 95.9193 186.339 96.9219 188.125 98.125C189.948 99.2917 191.406 100.732 192.5 102.445C193.63 104.159 194.195 106.328 194.195 108.953C194.195 113.547 192.755 117.156 189.875 119.781C187.031 122.37 183.057 123.664 177.953 123.664C174.745 123.664 171.482 123.008 168.164 121.695C164.883 120.383 162.568 118.87 161.219 117.156L159.305 107.258ZM227.719 124.102V127H261.57V124.102L249.922 122.625V58.4766H252.602C256.977 58.4766 261.005 58.5859 264.688 58.8047C268.37 58.987 270.758 59.2057 271.852 59.4609L273.328 70.8906H277.047V53.6641H212.516V70.8906H216.18L217.656 59.4609C221.047 58.7318 227.354 58.3672 236.578 58.3672H239.367V122.625L227.719 124.102ZM295.203 127V124.102L285.359 122.625L292.742 101.461H321.617L328.891 122.625L319.047 124.102V127H350.055V124.102L340.758 122.625L314.781 53.0625H304.391L279.398 122.625L271.086 124.102V127H295.203ZM294.383 96.5391L306.961 60.9375L319.922 96.5391H294.383Z" fill="#A88EBC"/>
</svg>
