<svg width="455" height="127" viewBox="0 0 455 127" fill="none" xmlns="http://www.w3.org/2000/svg">
<path fill-rule="evenodd" clip-rule="evenodd" d="M57.5628 32.1022C64.3904 45.0935 58.3068 55.2236 51.5489 66.4765L51.1026 67.22C57.8367 46.6025 49.8501 37.338 44.7903 31.4687C43.6835 30.1848 42.7168 29.0634 42.0748 28.0212C39.0915 23.1779 38.9084 7.69858 46.5 0C46.4974 1.36624 46.465 2.67046 46.4338 3.93229L46.4338 3.93255C46.2075 13.063 46.0362 19.974 57.5628 32.1022ZM27.1765 51.5L22.5 42.5L17.8235 51.5H17.7753L19.334 54.2668L19.327 54.2707L49.7078 108.489L82.6239 51.5H82.5961L77.4 43.25L72.2038 51.5H72.2179L49.7013 90.5L27.1846 51.5H27.1765ZM50.1342 109.75L82.5386 53.647L82.5392 53.6474L83.7871 51.5H92.4117H93.0025H99.41C99.41 51.5 91.9118 53.9995 89.9123 56.9989C89.7111 57.3007 89.5757 57.486 89.4949 57.5754L49.7013 126.5L9.89033 57.5454C9.80762 57.4472 9.68019 57.2703 9.5 57C7.5 54 0 51.5 0 51.5H6.39999H7H16.6276L16.7652 51.7443L16.7651 51.7444L49.2651 109.744L49.6947 110.511L50.1342 109.75ZM47.9964 72.5C53.611 59.9213 55.1825 48.1977 46.8252 36.1752C35.8222 24.387 38.7278 15.2704 41.6308 6.162L41.631 6.16124L41.6313 6.16048C41.7545 5.7737 41.8778 5.38695 42 5C41.7318 5.35558 41.4629 5.7107 41.1941 6.06564C34.7614 14.5612 28.4084 22.9513 33.2928 35.064C34.2215 37.0538 35.5015 38.6643 36.9305 40.462C40.9377 45.5036 46.1155 52.0178 47.9964 72.5ZM106.65 41V40.209L108.848 39.7695V25.707L106.65 25.2676V24.4766H113.77V25.2676L111.766 25.707V39.541H119.5V25.707L117.303 25.2676V24.4766H124.422V25.2676L122.418 25.707V39.7695L124.457 40.0508L124.158 47.9609H123.016L121.311 41H106.65ZM129.836 32.6855V33.002C129.836 34.6191 130.012 35.8789 130.363 36.7812C130.727 37.6719 131.277 38.3516 132.016 38.8203C132.766 39.2891 133.744 39.5234 134.951 39.5234C135.584 39.5234 136.334 39.4707 137.201 39.3652C138.068 39.2598 138.783 39.1426 139.346 39.0137V39.998C138.783 40.3613 138.016 40.6777 137.043 40.9473C136.082 41.2168 135.098 41.3516 134.09 41.3516C131.523 41.3516 129.643 40.6602 128.447 39.2773C127.264 37.8945 126.672 35.6738 126.672 32.6152C126.672 29.7324 127.275 27.582 128.482 26.1641C129.689 24.7461 131.412 24.0371 133.65 24.0371C137.881 24.0371 139.996 26.4395 139.996 31.2441V32.6855H129.836ZM133.65 25.4434C132.432 25.4434 131.494 25.9355 130.838 26.9199C130.193 27.9043 129.871 29.3574 129.871 31.2793H136.938C136.938 29.1816 136.668 27.6875 136.129 26.7969C135.59 25.8945 134.764 25.4434 133.65 25.4434ZM144.109 25.707L141.912 25.2676V24.4766H149.031V25.2676L147.027 25.707V31.8242H154.762V25.707L152.564 25.2676V24.4766H159.684V25.2676L157.68 25.707V39.7695L159.684 40.209V41H152.564V40.209L154.762 39.7695V33.2832H147.027V39.7695L149.031 40.209V41H141.912V40.209L144.109 39.7695V25.707ZM175.732 24.4766V29.1875H174.766L174.01 26.2695C172.709 26.0469 171.543 25.9355 170.512 25.9355H169.844V39.7695L172.199 40.209V41H164.377V40.209L166.926 39.7695V25.9355H166.275C165.244 25.9355 164.078 26.0469 162.777 26.2695L162.021 29.1875H161.055V24.4766H175.732ZM179.406 25.707L177.525 25.2676V24.4766H182.166L182.201 25.4434C182.693 25.0215 183.35 24.6816 184.17 24.4238C185.002 24.166 185.846 24.0371 186.701 24.0371C188.811 24.0371 190.439 24.7695 191.588 26.2344C192.748 27.6992 193.328 29.8027 193.328 32.5449C193.328 35.3457 192.695 37.5137 191.43 39.0488C190.176 40.584 188.359 41.3516 185.98 41.3516C184.656 41.3516 183.396 41.2227 182.201 40.9648C182.271 41.8086 182.307 42.4707 182.307 42.9512V47.416L185.189 47.8379V48.6641H177.314V47.8379L179.406 47.416V25.707ZM190.164 32.5449C190.164 30.2949 189.795 28.625 189.057 27.5352C188.33 26.4336 187.223 25.8828 185.734 25.8828C184.363 25.8828 183.221 26.0762 182.307 26.4629V39.6641C183.35 39.8633 184.492 39.9629 185.734 39.9629C188.688 39.9629 190.164 37.4902 190.164 32.5449ZM182.625 54.5625V51.6641H158.781V54.5625L168.406 55.9844L146.258 109.961L124.055 55.9844L133.898 54.5625V51.6641H104.258V54.5625L112.516 55.9844L142.32 126.695H145.109L174.586 55.9844L182.625 54.5625ZM196.57 120.625L187.164 122.102V125H245.734L246.773 105.641H243.164L240.047 119.203C237.13 119.786 230.969 120.078 221.562 120.078H207.125V90.1641H226.922L228.617 99.0234H232.117V76.4922H228.617L226.922 85.2422H207.125V56.5859H219.102C226.831 56.5859 232.737 56.8411 236.82 57.3516L238.57 69.2188H242.18V51.6641H187.164V54.5625L196.57 55.9844V120.625ZM263.562 105.258H260.008V122.211C263.107 123.414 266.643 124.362 270.617 125.055C274.591 125.747 278.547 126.094 282.484 126.094C290.651 126.094 296.904 124.161 301.242 120.297C305.581 116.396 307.75 110.909 307.75 103.836C307.75 100.336 307.185 97.401 306.055 95.0312C304.961 92.625 303.503 90.6016 301.68 88.9609C299.893 87.2839 297.833 85.9167 295.5 84.8594C293.203 83.7656 290.833 82.7995 288.391 81.9609C285.984 81.0859 283.615 80.2474 281.281 79.4453C278.984 78.6432 276.924 77.6953 275.102 76.6016C273.315 75.4714 271.857 74.1224 270.727 72.5547C269.633 70.987 269.086 69.0182 269.086 66.6484C269.086 63.1484 270.453 60.4141 273.188 58.4453C275.958 56.4401 279.786 55.4375 284.672 55.4375C290.141 55.4375 294.734 56.7865 298.453 59.4844L300.367 68.4531H303.922V53.1953C296.995 51.6276 290.578 50.8438 284.672 50.8438C276.906 50.8438 270.836 52.5026 266.461 55.8203C262.086 59.138 259.898 63.7135 259.898 69.5469C259.898 72.9375 260.445 75.7995 261.539 78.1328C262.669 80.4297 264.128 82.362 265.914 83.9297C267.737 85.4974 269.797 86.7917 272.094 87.8125C274.391 88.8333 276.742 89.763 279.148 90.6016C281.591 91.4401 283.961 92.2786 286.258 93.1172C288.555 93.9193 290.596 94.9219 292.383 96.125C294.206 97.2917 295.664 98.7318 296.758 100.445C297.888 102.159 298.453 104.328 298.453 106.953C298.453 111.547 297.013 115.156 294.133 117.781C291.289 120.37 287.315 121.664 282.211 121.664C279.003 121.664 275.74 121.008 272.422 119.695C269.141 118.383 266.826 116.87 265.477 115.156L263.562 105.258ZM331.977 122.102V125H365.828V122.102L354.18 120.625V56.4766H356.859C361.234 56.4766 365.263 56.5859 368.945 56.8047C372.628 56.987 375.016 57.2057 376.109 57.4609L377.586 68.8906H381.305V51.6641H316.773V68.8906H320.438L321.914 57.4609C325.305 56.7318 331.612 56.3672 340.836 56.3672H343.625V120.625L331.977 122.102ZM399.461 125V122.102L389.617 120.625L397 99.4609H425.875L433.148 120.625L423.305 122.102V125H454.312V122.102L445.016 120.625L419.039 51.0625H408.648L383.656 120.625L375.344 122.102V125H399.461ZM398.641 94.5391L411.219 58.9375L424.18 94.5391H398.641Z" fill="#A88EBC"/>
</svg>
