<svg width="318" height="127" viewBox="0 0 318 127" fill="none" xmlns="http://www.w3.org/2000/svg">
<path fill-rule="evenodd" clip-rule="evenodd" d="M57.5628 32.1022C64.3904 45.0935 58.3068 55.2236 51.5489 66.4765L51.1026 67.22C57.8367 46.6025 49.8501 37.338 44.7903 31.4687C43.6835 30.1848 42.7168 29.0634 42.0748 28.0212C39.0915 23.1779 38.9084 7.69858 46.5 0C46.4974 1.36624 46.465 2.67046 46.4338 3.93229L46.4338 3.93255C46.2075 13.063 46.0362 19.974 57.5628 32.1022ZM27.1765 51.5L22.5 42.5L17.8235 51.5H17.7753L19.334 54.2668L19.327 54.2707L49.7078 108.489L82.6239 51.5H82.5961L77.4 43.25L72.2038 51.5H72.2179L49.7013 90.5L27.1846 51.5H27.1765ZM50.1342 109.75L82.5386 53.647L82.5392 53.6474L83.7871 51.5H92.4117H93.0025H99.41C99.41 51.5 91.9118 53.9995 89.9123 56.9989C89.7111 57.3007 89.5757 57.486 89.4949 57.5754L49.7013 126.5L9.89033 57.5454C9.80762 57.4472 9.68019 57.2703 9.5 57C7.5 54 0 51.5 0 51.5H6.39999H7H16.6276L16.7652 51.7443L16.7651 51.7444L49.2651 109.744L49.6947 110.511L50.1342 109.75ZM47.9964 72.5C53.611 59.9213 55.1825 48.1977 46.8252 36.1752C35.8222 24.387 38.7278 15.2704 41.6308 6.162L41.631 6.16124L41.6313 6.16048C41.7545 5.7737 41.8778 5.38695 42 5C41.7318 5.35558 41.4629 5.7107 41.1941 6.06564C34.7614 14.5612 28.4084 22.9513 33.2928 35.064C34.2215 37.0538 35.5015 38.6643 36.9305 40.462C40.9377 45.5036 46.1155 52.0178 47.9964 72.5ZM117.65 41V40.209L119.848 39.7695V25.707L117.65 25.2676V24.4766H124.77V25.2676L122.766 25.707V39.541H130.5V25.707L128.303 25.2676V24.4766H135.422V25.2676L133.418 25.707V39.7695L135.457 40.0508L135.158 47.9609H134.016L132.311 41H117.65ZM140.836 32.6855V33.002C140.836 34.6191 141.012 35.8789 141.363 36.7812C141.727 37.6719 142.277 38.3516 143.016 38.8203C143.766 39.2891 144.744 39.5234 145.951 39.5234C146.584 39.5234 147.334 39.4707 148.201 39.3652C149.068 39.2598 149.783 39.1426 150.346 39.0137V39.998C149.783 40.3613 149.016 40.6777 148.043 40.9473C147.082 41.2168 146.098 41.3516 145.09 41.3516C142.523 41.3516 140.643 40.6602 139.447 39.2773C138.264 37.8945 137.672 35.6738 137.672 32.6152C137.672 29.7324 138.275 27.582 139.482 26.1641C140.689 24.7461 142.412 24.0371 144.65 24.0371C148.881 24.0371 150.996 26.4395 150.996 31.2441V32.6855H140.836ZM144.65 25.4434C143.432 25.4434 142.494 25.9355 141.838 26.9199C141.193 27.9043 140.871 29.3574 140.871 31.2793H147.938C147.938 29.1816 147.668 27.6875 147.129 26.7969C146.59 25.8945 145.764 25.4434 144.65 25.4434ZM155.109 25.707L152.912 25.2676V24.4766H160.031V25.2676L158.027 25.707V31.8242H165.762V25.707L163.564 25.2676V24.4766H170.684V25.2676L168.68 25.707V39.7695L170.684 40.209V41H163.564V40.209L165.762 39.7695V33.2832H158.027V39.7695L160.031 40.209V41H152.912V40.209L155.109 39.7695V25.707ZM186.732 24.4766V29.1875H185.766L185.01 26.2695C183.709 26.0469 182.543 25.9355 181.512 25.9355H180.844V39.7695L183.199 40.209V41H175.377V40.209L177.926 39.7695V25.9355H177.275C176.244 25.9355 175.078 26.0469 173.777 26.2695L173.021 29.1875H172.055V24.4766H186.732ZM190.406 25.707L188.525 25.2676V24.4766H193.166L193.201 25.4434C193.693 25.0215 194.35 24.6816 195.17 24.4238C196.002 24.166 196.846 24.0371 197.701 24.0371C199.811 24.0371 201.439 24.7695 202.588 26.2344C203.748 27.6992 204.328 29.8027 204.328 32.5449C204.328 35.3457 203.695 37.5137 202.43 39.0488C201.176 40.584 199.359 41.3516 196.98 41.3516C195.656 41.3516 194.396 41.2227 193.201 40.9648C193.271 41.8086 193.307 42.4707 193.307 42.9512V47.416L196.189 47.8379V48.6641H188.314V47.8379L190.406 47.416V25.707ZM201.164 32.5449C201.164 30.2949 200.795 28.625 200.057 27.5352C199.33 26.4336 198.223 25.8828 196.734 25.8828C195.363 25.8828 194.221 26.0762 193.307 26.4629V39.6641C194.35 39.8633 195.492 39.9629 196.734 39.9629C199.688 39.9629 201.164 37.4902 201.164 32.5449ZM162.5 59.75V58.0938H148.875V59.75L154.375 60.5625L141.719 91.4062L129.031 60.5625L134.656 59.75V58.0938H117.719V59.75L122.438 60.5625L139.469 100.969H141.062L157.906 60.5625L162.5 59.75ZM170.469 97.5L165.094 98.3438V100H198.562L199.156 88.9375H197.094L195.312 96.6875C193.646 97.0208 190.125 97.1875 184.75 97.1875H176.5V80.0938H187.812L188.781 85.1562H190.781V72.2812H188.781L187.812 77.2812H176.5V60.9062H183.344C187.76 60.9062 191.135 61.0521 193.469 61.3438L194.469 68.125H196.531V58.0938H165.094V59.75L170.469 60.5625V97.5ZM208.75 88.7188H206.719V98.4062C208.49 99.0938 210.51 99.6354 212.781 100.031C215.052 100.427 217.312 100.625 219.562 100.625C224.229 100.625 227.802 99.5208 230.281 97.3125C232.76 95.0833 234 91.9479 234 87.9062C234 85.9062 233.677 84.2292 233.031 82.875C232.406 81.5 231.573 80.3438 230.531 79.4062C229.51 78.4479 228.333 77.6667 227 77.0625C225.688 76.4375 224.333 75.8854 222.938 75.4062C221.562 74.9062 220.208 74.4271 218.875 73.9688C217.562 73.5104 216.385 72.9688 215.344 72.3438C214.323 71.6979 213.49 70.9271 212.844 70.0312C212.219 69.1354 211.906 68.0104 211.906 66.6562C211.906 64.6562 212.688 63.0938 214.25 61.9688C215.833 60.8229 218.021 60.25 220.812 60.25C223.938 60.25 226.562 61.0208 228.688 62.5625L229.781 67.6875H231.812V58.9688C227.854 58.0729 224.188 57.625 220.812 57.625C216.375 57.625 212.906 58.5729 210.406 60.4688C207.906 62.3646 206.656 64.9792 206.656 68.3125C206.656 70.25 206.969 71.8854 207.594 73.2188C208.24 74.5312 209.073 75.6354 210.094 76.5312C211.135 77.4271 212.312 78.1667 213.625 78.75C214.938 79.3333 216.281 79.8646 217.656 80.3438C219.052 80.8229 220.406 81.3021 221.719 81.7812C223.031 82.2396 224.198 82.8125 225.219 83.5C226.26 84.1667 227.094 84.9896 227.719 85.9688C228.365 86.9479 228.688 88.1875 228.688 89.6875C228.688 92.3125 227.865 94.375 226.219 95.875C224.594 97.3542 222.323 98.0938 219.406 98.0938C217.573 98.0938 215.708 97.7188 213.812 96.9688C211.938 96.2188 210.615 95.3542 209.844 94.375L208.75 88.7188ZM247.844 98.3438V100H267.188V98.3438L260.531 97.5V60.8438H262.062C264.562 60.8438 266.865 60.9062 268.969 61.0312C271.073 61.1354 272.438 61.2604 273.062 61.4062L273.906 67.9375H276.031V58.0938H239.156V67.9375H241.25L242.094 61.4062C244.031 60.9896 247.635 60.7812 252.906 60.7812H254.5V97.5L247.844 98.3438ZM286.406 100V98.3438L280.781 97.5L285 85.4062H301.5L305.656 97.5L300.031 98.3438V100H317.75V98.3438L312.438 97.5L297.594 57.75H291.656L277.375 97.5L272.625 98.3438V100H286.406ZM285.938 82.5938L293.125 62.25L300.531 82.5938H285.938Z" fill="#A88EBC"/>
</svg>
